<mxfile host="app.diagrams.net" agent="Mozilla/5.0 (Windows NT 10.0; Win64; x64) AppleWebKit/537.36 (KHTML, like Gecko) Chrome/129.0.0.0 Safari/537.36 Edg/129.0.0.0" version="24.7.17">
  <diagram name="Page-1" id="EIEvZyGs4Vts-uDytYRN">
    <mxGraphModel dx="1174" dy="1005" grid="0" gridSize="1" guides="1" tooltips="1" connect="1" arrows="1" fold="1" page="0" pageScale="1" pageWidth="850" pageHeight="1100" background="#FFFFFF" math="0" shadow="0">
      <root>
        <mxCell id="0" />
        <mxCell id="1" parent="0" />
        <mxCell id="YiDEpIaNqVNFrBxcr6og-1" value="S3(react spa)" style="points=[[0,0,0],[0.25,0,0],[0.5,0,0],[0.75,0,0],[1,0,0],[0,1,0],[0.25,1,0],[0.5,1,0],[0.75,1,0],[1,1,0],[0,0.25,0],[0,0.5,0],[0,0.75,0],[1,0.25,0],[1,0.5,0],[1,0.75,0]];outlineConnect=0;fontColor=#232F3E;fillColor=#7AA116;strokeColor=#ffffff;dashed=0;verticalLabelPosition=bottom;verticalAlign=top;align=center;html=1;fontSize=12;fontStyle=0;aspect=fixed;shape=mxgraph.aws4.resourceIcon;resIcon=mxgraph.aws4.s3;" vertex="1" parent="1">
          <mxGeometry x="360" y="-57.629999999999995" width="35.25" height="35.25" as="geometry" />
        </mxCell>
        <mxCell id="YiDEpIaNqVNFrBxcr6og-2" value="CloudFront" style="outlineConnect=0;dashed=0;verticalLabelPosition=bottom;verticalAlign=top;align=center;html=1;shape=mxgraph.aws3.cloudfront;fillColor=#F58536;gradientColor=none;" vertex="1" parent="1">
          <mxGeometry x="480" y="-63.379999999999995" width="40" height="46.75" as="geometry" />
        </mxCell>
        <mxCell id="YiDEpIaNqVNFrBxcr6og-10" style="edgeStyle=orthogonalEdgeStyle;rounded=0;orthogonalLoop=1;jettySize=auto;html=1;" edge="1" parent="1" source="YiDEpIaNqVNFrBxcr6og-3" target="YiDEpIaNqVNFrBxcr6og-4">
          <mxGeometry relative="1" as="geometry" />
        </mxCell>
        <mxCell id="YiDEpIaNqVNFrBxcr6og-22" value="access the website" style="edgeLabel;html=1;align=center;verticalAlign=middle;resizable=0;points=[];" vertex="1" connectable="0" parent="YiDEpIaNqVNFrBxcr6og-10">
          <mxGeometry x="-0.1654" y="-2" relative="1" as="geometry">
            <mxPoint as="offset" />
          </mxGeometry>
        </mxCell>
        <mxCell id="YiDEpIaNqVNFrBxcr6og-3" value="End User" style="html=1;verticalLabelPosition=bottom;align=center;labelBackgroundColor=#ffffff;verticalAlign=top;strokeWidth=2;strokeColor=#0080F0;shadow=0;dashed=0;shape=mxgraph.ios7.icons.user;" vertex="1" parent="1">
          <mxGeometry x="644.88" y="-170" width="30.25" height="30" as="geometry" />
        </mxCell>
        <mxCell id="YiDEpIaNqVNFrBxcr6og-9" style="edgeStyle=orthogonalEdgeStyle;rounded=0;orthogonalLoop=1;jettySize=auto;html=1;" edge="1" parent="1" source="YiDEpIaNqVNFrBxcr6og-4" target="YiDEpIaNqVNFrBxcr6og-5">
          <mxGeometry relative="1" as="geometry" />
        </mxCell>
        <mxCell id="YiDEpIaNqVNFrBxcr6og-92" style="edgeStyle=orthogonalEdgeStyle;rounded=0;orthogonalLoop=1;jettySize=auto;html=1;" edge="1" parent="1" source="YiDEpIaNqVNFrBxcr6og-4" target="YiDEpIaNqVNFrBxcr6og-2">
          <mxGeometry relative="1" as="geometry" />
        </mxCell>
        <mxCell id="YiDEpIaNqVNFrBxcr6og-93" value="Get frontend assets" style="edgeLabel;html=1;align=center;verticalAlign=middle;resizable=0;points=[];" vertex="1" connectable="0" parent="YiDEpIaNqVNFrBxcr6og-92">
          <mxGeometry x="0.1319" relative="1" as="geometry">
            <mxPoint as="offset" />
          </mxGeometry>
        </mxCell>
        <mxCell id="YiDEpIaNqVNFrBxcr6og-4" value="broswer" style="shape=image;html=1;verticalAlign=top;verticalLabelPosition=bottom;labelBackgroundColor=#ffffff;imageAspect=0;aspect=fixed;image=https://cdn2.iconfinder.com/data/icons/social-media-2189/48/17-Google_chrome-128.png;" vertex="1" parent="1">
          <mxGeometry x="640" y="-60" width="40" height="40" as="geometry" />
        </mxCell>
        <mxCell id="YiDEpIaNqVNFrBxcr6og-6" value="VPC" style="points=[[0,0],[0.25,0],[0.5,0],[0.75,0],[1,0],[1,0.25],[1,0.5],[1,0.75],[1,1],[0.75,1],[0.5,1],[0.25,1],[0,1],[0,0.75],[0,0.5],[0,0.25]];outlineConnect=0;gradientColor=none;html=1;whiteSpace=wrap;fontSize=12;fontStyle=0;container=1;pointerEvents=0;collapsible=0;recursiveResize=0;shape=mxgraph.aws4.group;grIcon=mxgraph.aws4.group_vpc2;strokeColor=#8C4FFF;fillColor=none;verticalAlign=top;align=left;spacingLeft=30;fontColor=#AAB7B8;dashed=0;" vertex="1" parent="1">
          <mxGeometry x="320" y="61" width="799" height="759" as="geometry" />
        </mxCell>
        <mxCell id="YiDEpIaNqVNFrBxcr6og-7" value="Public subnet" style="points=[[0,0],[0.25,0],[0.5,0],[0.75,0],[1,0],[1,0.25],[1,0.5],[1,0.75],[1,1],[0.75,1],[0.5,1],[0.25,1],[0,1],[0,0.75],[0,0.5],[0,0.25]];outlineConnect=0;gradientColor=none;html=1;whiteSpace=wrap;fontSize=12;fontStyle=0;container=1;pointerEvents=0;collapsible=0;recursiveResize=0;shape=mxgraph.aws4.group;grIcon=mxgraph.aws4.group_security_group;grStroke=0;strokeColor=#7AA116;fillColor=#F2F6E8;verticalAlign=top;align=left;spacingLeft=30;fontColor=#248814;dashed=0;" vertex="1" parent="YiDEpIaNqVNFrBxcr6og-6">
          <mxGeometry x="40" y="70" width="290" height="270" as="geometry" />
        </mxCell>
        <mxCell id="YiDEpIaNqVNFrBxcr6og-16" value="userService ALB" style="outlineConnect=0;dashed=0;verticalLabelPosition=bottom;verticalAlign=top;align=center;html=1;shape=mxgraph.aws3.application_load_balancer;fillColor=#F58534;gradientColor=none;" vertex="1" parent="YiDEpIaNqVNFrBxcr6og-7">
          <mxGeometry x="117.5" y="112" width="45" height="46" as="geometry" />
        </mxCell>
        <mxCell id="YiDEpIaNqVNFrBxcr6og-110" style="edgeStyle=orthogonalEdgeStyle;rounded=0;orthogonalLoop=1;jettySize=auto;html=1;" edge="1" parent="YiDEpIaNqVNFrBxcr6og-7" source="YiDEpIaNqVNFrBxcr6og-17" target="YiDEpIaNqVNFrBxcr6og-16">
          <mxGeometry relative="1" as="geometry" />
        </mxCell>
        <mxCell id="YiDEpIaNqVNFrBxcr6og-17" value="WAF" style="points=[[0,0,0],[0.25,0,0],[0.5,0,0],[0.75,0,0],[1,0,0],[0,1,0],[0.25,1,0],[0.5,1,0],[0.75,1,0],[1,1,0],[0,0.25,0],[0,0.5,0],[0,0.75,0],[1,0.25,0],[1,0.5,0],[1,0.75,0]];outlineConnect=0;fontColor=#232F3E;fillColor=#DD344C;strokeColor=#ffffff;dashed=0;verticalLabelPosition=bottom;verticalAlign=top;align=center;html=1;fontSize=12;fontStyle=0;aspect=fixed;shape=mxgraph.aws4.resourceIcon;resIcon=mxgraph.aws4.waf;" vertex="1" parent="YiDEpIaNqVNFrBxcr6og-7">
          <mxGeometry x="115" y="25.68" width="50" height="50" as="geometry" />
        </mxCell>
        <mxCell id="YiDEpIaNqVNFrBxcr6og-25" value="userService ECS Fargate cluster" style="points=[[0,0,0],[0.25,0,0],[0.5,0,0],[0.75,0,0],[1,0,0],[0,1,0],[0.25,1,0],[0.5,1,0],[0.75,1,0],[1,1,0],[0,0.25,0],[0,0.5,0],[0,0.75,0],[1,0.25,0],[1,0.5,0],[1,0.75,0]];outlineConnect=0;fontColor=#232F3E;fillColor=#ED7100;strokeColor=#ffffff;dashed=0;verticalLabelPosition=bottom;verticalAlign=top;align=center;html=1;fontSize=12;fontStyle=0;aspect=fixed;shape=mxgraph.aws4.resourceIcon;resIcon=mxgraph.aws4.fargate;" vertex="1" parent="YiDEpIaNqVNFrBxcr6og-7">
          <mxGeometry x="115" y="190" width="50" height="50" as="geometry" />
        </mxCell>
        <mxCell id="YiDEpIaNqVNFrBxcr6og-29" style="edgeStyle=orthogonalEdgeStyle;rounded=0;orthogonalLoop=1;jettySize=auto;html=1;" edge="1" parent="YiDEpIaNqVNFrBxcr6og-7" source="YiDEpIaNqVNFrBxcr6og-16" target="YiDEpIaNqVNFrBxcr6og-25">
          <mxGeometry relative="1" as="geometry" />
        </mxCell>
        <mxCell id="YiDEpIaNqVNFrBxcr6og-26" value="Private subnet" style="points=[[0,0],[0.25,0],[0.5,0],[0.75,0],[1,0],[1,0.25],[1,0.5],[1,0.75],[1,1],[0.75,1],[0.5,1],[0.25,1],[0,1],[0,0.75],[0,0.5],[0,0.25]];outlineConnect=0;gradientColor=none;html=1;whiteSpace=wrap;fontSize=12;fontStyle=0;container=1;pointerEvents=0;collapsible=0;recursiveResize=0;shape=mxgraph.aws4.group;grIcon=mxgraph.aws4.group_security_group;grStroke=0;strokeColor=#00A4A6;fillColor=#E6F6F7;verticalAlign=top;align=left;spacingLeft=30;fontColor=#147EBA;dashed=0;" vertex="1" parent="YiDEpIaNqVNFrBxcr6og-6">
          <mxGeometry x="80" y="390" width="200" height="260" as="geometry" />
        </mxCell>
        <mxCell id="YiDEpIaNqVNFrBxcr6og-35" value="RDS(PostGres) user database" style="points=[[0,0,0],[0.25,0,0],[0.5,0,0],[0.75,0,0],[1,0,0],[0,1,0],[0.25,1,0],[0.5,1,0],[0.75,1,0],[1,1,0],[0,0.25,0],[0,0.5,0],[0,0.75,0],[1,0.25,0],[1,0.5,0],[1,0.75,0]];outlineConnect=0;fontColor=#232F3E;fillColor=#C925D1;strokeColor=#ffffff;dashed=0;verticalLabelPosition=bottom;verticalAlign=top;align=center;html=1;fontSize=12;fontStyle=0;aspect=fixed;shape=mxgraph.aws4.resourceIcon;resIcon=mxgraph.aws4.rds;" vertex="1" parent="YiDEpIaNqVNFrBxcr6og-26">
          <mxGeometry x="75" y="160" width="50" height="50" as="geometry" />
        </mxCell>
        <mxCell id="YiDEpIaNqVNFrBxcr6og-71" value="ElastiCache(Redis)" style="points=[[0,0,0],[0.25,0,0],[0.5,0,0],[0.75,0,0],[1,0,0],[0,1,0],[0.25,1,0],[0.5,1,0],[0.75,1,0],[1,1,0],[0,0.25,0],[0,0.5,0],[0,0.75,0],[1,0.25,0],[1,0.5,0],[1,0.75,0]];outlineConnect=0;fontColor=#232F3E;fillColor=#C925D1;strokeColor=#ffffff;dashed=0;verticalLabelPosition=bottom;verticalAlign=top;align=center;html=1;fontSize=12;fontStyle=0;aspect=fixed;shape=mxgraph.aws4.resourceIcon;resIcon=mxgraph.aws4.elasticache;" vertex="1" parent="YiDEpIaNqVNFrBxcr6og-26">
          <mxGeometry x="70" y="40" width="60" height="60" as="geometry" />
        </mxCell>
        <mxCell id="YiDEpIaNqVNFrBxcr6og-72" style="edgeStyle=orthogonalEdgeStyle;rounded=0;orthogonalLoop=1;jettySize=auto;html=1;entryX=0.5;entryY=0;entryDx=0;entryDy=0;entryPerimeter=0;" edge="1" parent="YiDEpIaNqVNFrBxcr6og-26" source="YiDEpIaNqVNFrBxcr6og-71" target="YiDEpIaNqVNFrBxcr6og-35">
          <mxGeometry relative="1" as="geometry" />
        </mxCell>
        <mxCell id="YiDEpIaNqVNFrBxcr6og-73" style="edgeStyle=orthogonalEdgeStyle;rounded=0;orthogonalLoop=1;jettySize=auto;html=1;entryX=0.5;entryY=0;entryDx=0;entryDy=0;entryPerimeter=0;" edge="1" parent="YiDEpIaNqVNFrBxcr6og-6" source="YiDEpIaNqVNFrBxcr6og-25" target="YiDEpIaNqVNFrBxcr6og-71">
          <mxGeometry relative="1" as="geometry" />
        </mxCell>
        <mxCell id="YiDEpIaNqVNFrBxcr6og-124" value="Public subnet" style="points=[[0,0],[0.25,0],[0.5,0],[0.75,0],[1,0],[1,0.25],[1,0.5],[1,0.75],[1,1],[0.75,1],[0.5,1],[0.25,1],[0,1],[0,0.75],[0,0.5],[0,0.25]];outlineConnect=0;gradientColor=none;html=1;whiteSpace=wrap;fontSize=12;fontStyle=0;container=1;pointerEvents=0;collapsible=0;recursiveResize=0;shape=mxgraph.aws4.group;grIcon=mxgraph.aws4.group_security_group;grStroke=0;strokeColor=#7AA116;fillColor=#F2F6E8;verticalAlign=top;align=left;spacingLeft=30;fontColor=#248814;dashed=0;" vertex="1" parent="YiDEpIaNqVNFrBxcr6og-6">
          <mxGeometry x="360" y="70" width="421" height="270" as="geometry" />
        </mxCell>
        <mxCell id="YiDEpIaNqVNFrBxcr6og-125" value="loanService ALB" style="outlineConnect=0;dashed=0;verticalLabelPosition=bottom;verticalAlign=top;align=center;html=1;shape=mxgraph.aws3.application_load_balancer;fillColor=#F58534;gradientColor=none;" vertex="1" parent="YiDEpIaNqVNFrBxcr6og-124">
          <mxGeometry x="117.5" y="100" width="45" height="46" as="geometry" />
        </mxCell>
        <mxCell id="YiDEpIaNqVNFrBxcr6og-126" style="edgeStyle=orthogonalEdgeStyle;rounded=0;orthogonalLoop=1;jettySize=auto;html=1;" edge="1" parent="YiDEpIaNqVNFrBxcr6og-124" source="YiDEpIaNqVNFrBxcr6og-127" target="YiDEpIaNqVNFrBxcr6og-125">
          <mxGeometry relative="1" as="geometry" />
        </mxCell>
        <mxCell id="YiDEpIaNqVNFrBxcr6og-127" value="WAF" style="points=[[0,0,0],[0.25,0,0],[0.5,0,0],[0.75,0,0],[1,0,0],[0,1,0],[0.25,1,0],[0.5,1,0],[0.75,1,0],[1,1,0],[0,0.25,0],[0,0.5,0],[0,0.75,0],[1,0.25,0],[1,0.5,0],[1,0.75,0]];outlineConnect=0;fontColor=#232F3E;fillColor=#DD344C;strokeColor=#ffffff;dashed=0;verticalLabelPosition=bottom;verticalAlign=top;align=center;html=1;fontSize=12;fontStyle=0;aspect=fixed;shape=mxgraph.aws4.resourceIcon;resIcon=mxgraph.aws4.waf;" vertex="1" parent="YiDEpIaNqVNFrBxcr6og-124">
          <mxGeometry x="115" y="21.37" width="50" height="50" as="geometry" />
        </mxCell>
        <mxCell id="YiDEpIaNqVNFrBxcr6og-130" value="loanService ECS Fargate cluster" style="points=[[0,0,0],[0.25,0,0],[0.5,0,0],[0.75,0,0],[1,0,0],[0,1,0],[0.25,1,0],[0.5,1,0],[0.75,1,0],[1,1,0],[0,0.25,0],[0,0.5,0],[0,0.75,0],[1,0.25,0],[1,0.5,0],[1,0.75,0]];outlineConnect=0;fontColor=#232F3E;fillColor=#ED7100;strokeColor=default;dashed=0;verticalLabelPosition=bottom;verticalAlign=top;align=center;html=1;fontSize=12;fontStyle=0;aspect=fixed;shape=mxgraph.aws4.resourceIcon;resIcon=mxgraph.aws4.fargate;" vertex="1" parent="YiDEpIaNqVNFrBxcr6og-124">
          <mxGeometry x="115" y="190" width="50" height="50" as="geometry" />
        </mxCell>
        <mxCell id="YiDEpIaNqVNFrBxcr6og-131" style="edgeStyle=orthogonalEdgeStyle;rounded=0;orthogonalLoop=1;jettySize=auto;html=1;" edge="1" parent="YiDEpIaNqVNFrBxcr6og-124" source="YiDEpIaNqVNFrBxcr6og-125" target="YiDEpIaNqVNFrBxcr6og-130">
          <mxGeometry relative="1" as="geometry" />
        </mxCell>
        <mxCell id="YiDEpIaNqVNFrBxcr6og-173" value="&lt;font face=&quot;Helvetica&quot;&gt;loan sqs lambda consumer&lt;/font&gt;" style="points=[[0,0,0],[0.25,0,0],[0.5,0,0],[0.75,0,0],[1,0,0],[0,1,0],[0.25,1,0],[0.5,1,0],[0.75,1,0],[1,1,0],[0,0.25,0],[0,0.5,0],[0,0.75,0],[1,0.25,0],[1,0.5,0],[1,0.75,0]];outlineConnect=0;fontColor=#232F3E;fillColor=#ED7100;strokeColor=#ffffff;dashed=0;verticalLabelPosition=bottom;verticalAlign=top;align=center;html=1;fontSize=12;fontStyle=0;aspect=fixed;shape=mxgraph.aws4.resourceIcon;resIcon=mxgraph.aws4.lambda;hachureGap=4;fontFamily=Architects Daughter;fontSource=https%3A%2F%2Ffonts.googleapis.com%2Fcss%3Ffamily%3DArchitects%2BDaughter;" vertex="1" parent="YiDEpIaNqVNFrBxcr6og-124">
          <mxGeometry x="332" y="97.5" width="51" height="51" as="geometry" />
        </mxCell>
        <mxCell id="YiDEpIaNqVNFrBxcr6og-138" value="Private subnet" style="points=[[0,0],[0.25,0],[0.5,0],[0.75,0],[1,0],[1,0.25],[1,0.5],[1,0.75],[1,1],[0.75,1],[0.5,1],[0.25,1],[0,1],[0,0.75],[0,0.5],[0,0.25]];outlineConnect=0;gradientColor=none;html=1;whiteSpace=wrap;fontSize=12;fontStyle=0;container=1;pointerEvents=0;collapsible=0;recursiveResize=0;shape=mxgraph.aws4.group;grIcon=mxgraph.aws4.group_security_group;grStroke=0;strokeColor=#00A4A6;fillColor=#E6F6F7;verticalAlign=top;align=left;spacingLeft=30;fontColor=#147EBA;dashed=0;" vertex="1" parent="YiDEpIaNqVNFrBxcr6og-6">
          <mxGeometry x="400" y="390" width="200" height="260" as="geometry" />
        </mxCell>
        <mxCell id="YiDEpIaNqVNFrBxcr6og-139" value="RDS(PostGres) loan database" style="points=[[0,0,0],[0.25,0,0],[0.5,0,0],[0.75,0,0],[1,0,0],[0,1,0],[0.25,1,0],[0.5,1,0],[0.75,1,0],[1,1,0],[0,0.25,0],[0,0.5,0],[0,0.75,0],[1,0.25,0],[1,0.5,0],[1,0.75,0]];outlineConnect=0;fontColor=#232F3E;fillColor=#C925D1;strokeColor=#ffffff;dashed=0;verticalLabelPosition=bottom;verticalAlign=top;align=center;html=1;fontSize=12;fontStyle=0;aspect=fixed;shape=mxgraph.aws4.resourceIcon;resIcon=mxgraph.aws4.rds;" vertex="1" parent="YiDEpIaNqVNFrBxcr6og-138">
          <mxGeometry x="75" y="160" width="50" height="50" as="geometry" />
        </mxCell>
        <mxCell id="YiDEpIaNqVNFrBxcr6og-140" value="ElastiCache(Redis)" style="points=[[0,0,0],[0.25,0,0],[0.5,0,0],[0.75,0,0],[1,0,0],[0,1,0],[0.25,1,0],[0.5,1,0],[0.75,1,0],[1,1,0],[0,0.25,0],[0,0.5,0],[0,0.75,0],[1,0.25,0],[1,0.5,0],[1,0.75,0]];outlineConnect=0;fontColor=#232F3E;fillColor=#C925D1;strokeColor=#ffffff;dashed=0;verticalLabelPosition=bottom;verticalAlign=top;align=center;html=1;fontSize=12;fontStyle=0;aspect=fixed;shape=mxgraph.aws4.resourceIcon;resIcon=mxgraph.aws4.elasticache;" vertex="1" parent="YiDEpIaNqVNFrBxcr6og-138">
          <mxGeometry x="70" y="40" width="60" height="60" as="geometry" />
        </mxCell>
        <mxCell id="YiDEpIaNqVNFrBxcr6og-141" style="edgeStyle=orthogonalEdgeStyle;rounded=0;orthogonalLoop=1;jettySize=auto;html=1;entryX=0.5;entryY=0;entryDx=0;entryDy=0;entryPerimeter=0;" edge="1" parent="YiDEpIaNqVNFrBxcr6og-138" source="YiDEpIaNqVNFrBxcr6og-140" target="YiDEpIaNqVNFrBxcr6og-139">
          <mxGeometry relative="1" as="geometry" />
        </mxCell>
        <mxCell id="YiDEpIaNqVNFrBxcr6og-142" style="edgeStyle=orthogonalEdgeStyle;rounded=0;orthogonalLoop=1;jettySize=auto;html=1;" edge="1" parent="YiDEpIaNqVNFrBxcr6og-6" source="YiDEpIaNqVNFrBxcr6og-130" target="YiDEpIaNqVNFrBxcr6og-140">
          <mxGeometry relative="1" as="geometry" />
        </mxCell>
        <mxCell id="YiDEpIaNqVNFrBxcr6og-146" style="edgeStyle=orthogonalEdgeStyle;rounded=0;orthogonalLoop=1;jettySize=auto;html=1;" edge="1" parent="YiDEpIaNqVNFrBxcr6og-6" source="YiDEpIaNqVNFrBxcr6og-5" target="YiDEpIaNqVNFrBxcr6og-17">
          <mxGeometry relative="1" as="geometry">
            <Array as="points">
              <mxPoint x="340" y="30" />
              <mxPoint x="180" y="30" />
            </Array>
          </mxGeometry>
        </mxCell>
        <mxCell id="YiDEpIaNqVNFrBxcr6og-147" value="userService api call" style="edgeLabel;html=1;align=center;verticalAlign=middle;resizable=0;points=[];" vertex="1" connectable="0" parent="YiDEpIaNqVNFrBxcr6og-146">
          <mxGeometry x="0.0757" y="-1" relative="1" as="geometry">
            <mxPoint x="-42" y="21" as="offset" />
          </mxGeometry>
        </mxCell>
        <mxCell id="YiDEpIaNqVNFrBxcr6og-148" style="edgeStyle=orthogonalEdgeStyle;rounded=0;orthogonalLoop=1;jettySize=auto;html=1;" edge="1" parent="YiDEpIaNqVNFrBxcr6og-6" source="YiDEpIaNqVNFrBxcr6og-5" target="YiDEpIaNqVNFrBxcr6og-127">
          <mxGeometry relative="1" as="geometry">
            <Array as="points">
              <mxPoint x="340" y="30" />
              <mxPoint x="498" y="30" />
            </Array>
          </mxGeometry>
        </mxCell>
        <mxCell id="YiDEpIaNqVNFrBxcr6og-149" value="loanService api call" style="edgeLabel;html=1;align=center;verticalAlign=middle;resizable=0;points=[];" vertex="1" connectable="0" parent="YiDEpIaNqVNFrBxcr6og-148">
          <mxGeometry x="0.0525" y="1" relative="1" as="geometry">
            <mxPoint x="49" y="19" as="offset" />
          </mxGeometry>
        </mxCell>
        <mxCell id="YiDEpIaNqVNFrBxcr6og-5" value="Internet Gateway" style="outlineConnect=0;dashed=0;verticalLabelPosition=bottom;verticalAlign=top;align=center;html=1;shape=mxgraph.aws3.internet_gateway;fillColor=#F58534;gradientColor=none;" vertex="1" parent="YiDEpIaNqVNFrBxcr6og-6">
          <mxGeometry x="320" y="-20" width="40" height="41.37" as="geometry" />
        </mxCell>
        <mxCell id="YiDEpIaNqVNFrBxcr6og-185" style="edgeStyle=orthogonalEdgeStyle;rounded=0;orthogonalLoop=1;jettySize=auto;html=1;entryX=1;entryY=0.5;entryDx=0;entryDy=0;entryPerimeter=0;" edge="1" parent="YiDEpIaNqVNFrBxcr6og-6" source="YiDEpIaNqVNFrBxcr6og-173" target="YiDEpIaNqVNFrBxcr6og-139">
          <mxGeometry relative="1" as="geometry">
            <Array as="points">
              <mxPoint x="718" y="575" />
            </Array>
          </mxGeometry>
        </mxCell>
        <mxCell id="YiDEpIaNqVNFrBxcr6og-188" value="successfully processed loan event" style="edgeLabel;html=1;align=center;verticalAlign=middle;resizable=0;points=[];" vertex="1" connectable="0" parent="YiDEpIaNqVNFrBxcr6og-185">
          <mxGeometry x="-0.0248" y="4" relative="1" as="geometry">
            <mxPoint x="-14" y="-3" as="offset" />
          </mxGeometry>
        </mxCell>
        <mxCell id="YiDEpIaNqVNFrBxcr6og-21" style="edgeStyle=orthogonalEdgeStyle;rounded=0;orthogonalLoop=1;jettySize=auto;html=1;entryX=1;entryY=0.5;entryDx=0;entryDy=0;entryPerimeter=0;" edge="1" parent="1" source="YiDEpIaNqVNFrBxcr6og-2" target="YiDEpIaNqVNFrBxcr6og-1">
          <mxGeometry relative="1" as="geometry" />
        </mxCell>
        <mxCell id="YiDEpIaNqVNFrBxcr6og-23" value="cache miss" style="edgeLabel;html=1;align=center;verticalAlign=middle;resizable=0;points=[];" vertex="1" connectable="0" parent="YiDEpIaNqVNFrBxcr6og-21">
          <mxGeometry x="-0.079" y="3" relative="1" as="geometry">
            <mxPoint as="offset" />
          </mxGeometry>
        </mxCell>
        <mxCell id="YiDEpIaNqVNFrBxcr6og-30" value="AWS Cognito" style="points=[[0,0,0],[0.25,0,0],[0.5,0,0],[0.75,0,0],[1,0,0],[0,1,0],[0.25,1,0],[0.5,1,0],[0.75,1,0],[1,1,0],[0,0.25,0],[0,0.5,0],[0,0.75,0],[1,0.25,0],[1,0.5,0],[1,0.75,0]];outlineConnect=0;fontColor=#232F3E;fillColor=#DD344C;strokeColor=#ffffff;dashed=0;verticalLabelPosition=bottom;verticalAlign=top;align=center;html=1;fontSize=12;fontStyle=0;aspect=fixed;shape=mxgraph.aws4.resourceIcon;resIcon=mxgraph.aws4.cognito;" vertex="1" parent="1">
          <mxGeometry x="180" y="318" width="54" height="54" as="geometry" />
        </mxCell>
        <mxCell id="YiDEpIaNqVNFrBxcr6og-104" value="loan SQS queue" style="points=[[0,0,0],[0.25,0,0],[0.5,0,0],[0.75,0,0],[1,0,0],[0,1,0],[0.25,1,0],[0.5,1,0],[0.75,1,0],[1,1,0],[0,0.25,0],[0,0.5,0],[0,0.75,0],[1,0.25,0],[1,0.5,0],[1,0.75,0]];outlineConnect=0;fontColor=#232F3E;fillColor=#E7157B;strokeColor=#ffffff;dashed=0;verticalLabelPosition=bottom;verticalAlign=top;align=center;html=1;fontSize=12;fontStyle=0;aspect=fixed;shape=mxgraph.aws4.resourceIcon;resIcon=mxgraph.aws4.sqs;" vertex="1" parent="1">
          <mxGeometry x="1282" y="307" width="78" height="78" as="geometry" />
        </mxCell>
        <mxCell id="YiDEpIaNqVNFrBxcr6og-106" value="loan SQS dead letter queue" style="points=[[0,0,0],[0.25,0,0],[0.5,0,0],[0.75,0,0],[1,0,0],[0,1,0],[0.25,1,0],[0.5,1,0],[0.75,1,0],[1,1,0],[0,0.25,0],[0,0.5,0],[0,0.75,0],[1,0.25,0],[1,0.5,0],[1,0.75,0]];outlineConnect=0;fontColor=#232F3E;fillColor=#E7157B;strokeColor=#ffffff;dashed=0;verticalLabelPosition=bottom;verticalAlign=top;align=center;html=1;fontSize=12;fontStyle=0;aspect=fixed;shape=mxgraph.aws4.resourceIcon;resIcon=mxgraph.aws4.sqs;" vertex="1" parent="1">
          <mxGeometry x="1282" y="130" width="78" height="78" as="geometry" />
        </mxCell>
        <mxCell id="YiDEpIaNqVNFrBxcr6og-152" style="edgeStyle=orthogonalEdgeStyle;rounded=0;orthogonalLoop=1;jettySize=auto;html=1;" edge="1" parent="1" source="YiDEpIaNqVNFrBxcr6og-25" target="YiDEpIaNqVNFrBxcr6og-30">
          <mxGeometry relative="1" as="geometry" />
        </mxCell>
        <mxCell id="YiDEpIaNqVNFrBxcr6og-153" value="User authentication &amp;amp; authorization" style="edgeLabel;html=1;align=center;verticalAlign=middle;resizable=0;points=[];" vertex="1" connectable="0" parent="YiDEpIaNqVNFrBxcr6og-152">
          <mxGeometry x="0.3397" relative="1" as="geometry">
            <mxPoint as="offset" />
          </mxGeometry>
        </mxCell>
        <mxCell id="YiDEpIaNqVNFrBxcr6og-155" value="" style="rounded=0;whiteSpace=wrap;html=1;" vertex="1" parent="1">
          <mxGeometry x="1374" y="305" width="270" height="72" as="geometry" />
        </mxCell>
        <mxCell id="YiDEpIaNqVNFrBxcr6og-156" value="Create Loan Event" style="whiteSpace=wrap;html=1;aspect=fixed;" vertex="1" parent="1">
          <mxGeometry x="1385" y="318" width="50" height="50" as="geometry" />
        </mxCell>
        <mxCell id="YiDEpIaNqVNFrBxcr6og-157" value="Update Loan Event" style="whiteSpace=wrap;html=1;aspect=fixed;" vertex="1" parent="1">
          <mxGeometry x="1448" y="318" width="50" height="50" as="geometry" />
        </mxCell>
        <mxCell id="YiDEpIaNqVNFrBxcr6og-158" value="Update Loan Event" style="whiteSpace=wrap;html=1;aspect=fixed;" vertex="1" parent="1">
          <mxGeometry x="1511" y="318" width="50" height="50" as="geometry" />
        </mxCell>
        <mxCell id="YiDEpIaNqVNFrBxcr6og-159" value="Create Loan Event" style="whiteSpace=wrap;html=1;aspect=fixed;" vertex="1" parent="1">
          <mxGeometry x="1574" y="318" width="50" height="50" as="geometry" />
        </mxCell>
        <mxCell id="YiDEpIaNqVNFrBxcr6og-174" style="edgeStyle=orthogonalEdgeStyle;rounded=0;hachureGap=4;orthogonalLoop=1;jettySize=auto;html=1;fontFamily=Architects Daughter;fontSource=https%3A%2F%2Ffonts.googleapis.com%2Fcss%3Ffamily%3DArchitects%2BDaughter;" edge="1" parent="1" source="YiDEpIaNqVNFrBxcr6og-130" target="YiDEpIaNqVNFrBxcr6og-104">
          <mxGeometry relative="1" as="geometry" />
        </mxCell>
        <mxCell id="YiDEpIaNqVNFrBxcr6og-175" value="&lt;font face=&quot;Helvetica&quot;&gt;push loan events to&lt;/font&gt;" style="edgeLabel;html=1;align=center;verticalAlign=middle;resizable=0;points=[];hachureGap=4;fontFamily=Architects Daughter;fontSource=https%3A%2F%2Ffonts.googleapis.com%2Fcss%3Ffamily%3DArchitects%2BDaughter;" vertex="1" connectable="0" parent="YiDEpIaNqVNFrBxcr6og-174">
          <mxGeometry x="-0.3667" relative="1" as="geometry">
            <mxPoint x="189" y="-1" as="offset" />
          </mxGeometry>
        </mxCell>
        <mxCell id="YiDEpIaNqVNFrBxcr6og-177" style="edgeStyle=orthogonalEdgeStyle;rounded=0;orthogonalLoop=1;jettySize=auto;html=1;entryX=1;entryY=0.5;entryDx=0;entryDy=0;entryPerimeter=0;exitX=0.5;exitY=0;exitDx=0;exitDy=0;exitPerimeter=0;" edge="1" parent="1" source="YiDEpIaNqVNFrBxcr6og-104" target="YiDEpIaNqVNFrBxcr6og-173">
          <mxGeometry relative="1" as="geometry">
            <mxPoint x="1235" y="181" as="sourcePoint" />
            <mxPoint x="1235" y="301" as="targetPoint" />
          </mxGeometry>
        </mxCell>
        <mxCell id="YiDEpIaNqVNFrBxcr6og-186" style="edgeStyle=orthogonalEdgeStyle;rounded=0;orthogonalLoop=1;jettySize=auto;html=1;entryX=0;entryY=0.5;entryDx=0;entryDy=0;entryPerimeter=0;" edge="1" parent="1" source="YiDEpIaNqVNFrBxcr6og-173" target="YiDEpIaNqVNFrBxcr6og-106">
          <mxGeometry relative="1" as="geometry">
            <Array as="points">
              <mxPoint x="1038" y="169" />
            </Array>
          </mxGeometry>
        </mxCell>
        <mxCell id="YiDEpIaNqVNFrBxcr6og-187" value="failed processing loan event" style="edgeLabel;html=1;align=center;verticalAlign=middle;resizable=0;points=[];" vertex="1" connectable="0" parent="YiDEpIaNqVNFrBxcr6og-186">
          <mxGeometry x="0.0115" y="-1" relative="1" as="geometry">
            <mxPoint as="offset" />
          </mxGeometry>
        </mxCell>
      </root>
    </mxGraphModel>
  </diagram>
</mxfile>
